<svg width="24" height="24" viewBox="0 0 24 24" fill="none" xmlns="http://www.w3.org/2000/svg">
<path d="M0 1H4.764L5.309 3H23.387L19.721 14H7.78L7.28 16H22V18H4.72L5.966 13.011L3.236 3H0V1ZM4 21C4 20.4696 4.21071 19.9609 4.58579 19.5858C4.96086 19.2107 5.46957 19 6 19C6.53043 19 7.03914 19.2107 7.41421 19.5858C7.78929 19.9609 8 20.4696 8 21C8 21.5304 7.78929 22.0391 7.41421 22.4142C7.03914 22.7893 6.53043 23 6 23C5.46957 23 4.96086 22.7893 4.58579 22.4142C4.21071 22.0391 4 21.5304 4 21ZM18 21C18 20.4696 18.2107 19.9609 18.5858 19.5858C18.9609 19.2107 19.4696 19 20 19C20.5304 19 21.0391 19.2107 21.4142 19.5858C21.7893 19.9609 22 20.4696 22 21C22 21.5304 21.7893 22.0391 21.4142 22.4142C21.0391 22.7893 20.5304 23 20 23C19.4696 23 18.9609 22.7893 18.5858 22.4142C18.2107 22.0391 18 21.5304 18 21Z" fill="#ABABAB"/>
</svg>
