<svg width="24" height="22" viewBox="0 0 24 22" fill="none" xmlns="http://www.w3.org/2000/svg">
<path d="M0 0H4.764L5.309 2H23.387L19.721 13H7.78L7.28 15H22V17H4.72L5.966 12.011L3.236 2H0V0ZM7.764 11H18.279L20.613 4H5.855L7.764 11ZM4 20C4 19.4696 4.21071 18.9609 4.58579 18.5858C4.96086 18.2107 5.46957 18 6 18C6.53043 18 7.03914 18.2107 7.41421 18.5858C7.78929 18.9609 8 19.4696 8 20C8 20.5304 7.78929 21.0391 7.41421 21.4142C7.03914 21.7893 6.53043 22 6 22C5.46957 22 4.96086 21.7893 4.58579 21.4142C4.21071 21.0391 4 20.5304 4 20ZM18 20C18 19.4696 18.2107 18.9609 18.5858 18.5858C18.9609 18.2107 19.4696 18 20 18C20.5304 18 21.0391 18.2107 21.4142 18.5858C21.7893 18.9609 22 19.4696 22 20C22 20.5304 21.7893 21.0391 21.4142 21.4142C21.0391 21.7893 20.5304 22 20 22C19.4696 22 18.9609 21.7893 18.5858 21.4142C18.2107 21.0391 18 20.5304 18 20Z" fill="#F97315"/>
</svg>
