<svg width="20" height="20" viewBox="0 0 20 20" fill="none" xmlns="http://www.w3.org/2000/svg">
<path d="M17.0498 2.90999C16.1329 1.9841 15.0408 1.24996 13.8373 0.750355C12.6338 0.250751 11.3429 -0.0043242 10.0398 -7.14002e-06C4.5798 -7.14002e-06 0.129805 4.44999 0.129805 9.90999C0.129805 11.66 0.589805 13.36 1.4498 14.86L0.0498047 20L5.2998 18.62C6.7498 19.41 8.3798 19.83 10.0398 19.83C15.4998 19.83 19.9498 15.38 19.9498 9.91999C19.9498 7.26999 18.9198 4.77999 17.0498 2.90999ZM10.0398 18.15C8.5598 18.15 7.1098 17.75 5.8398 17L5.5398 16.82L2.4198 17.64L3.2498 14.6L3.0498 14.29C2.22735 12.9771 1.79073 11.4593 1.7898 9.90999C1.7898 5.36999 5.4898 1.66999 10.0298 1.66999C12.2298 1.66999 14.2998 2.52999 15.8498 4.08999C16.6174 4.85386 17.2257 5.76254 17.6394 6.76332C18.0531 7.76411 18.264 8.83708 18.2598 9.91999C18.2798 14.46 14.5798 18.15 10.0398 18.15ZM14.5598 11.99C14.3098 11.87 13.0898 11.27 12.8698 11.18C12.6398 11.1 12.4798 11.06 12.3098 11.3C12.1398 11.55 11.6698 12.11 11.5298 12.27C11.3898 12.44 11.2398 12.46 10.9898 12.33C10.7398 12.21 9.9398 11.94 8.9998 11.1C8.2598 10.44 7.7698 9.62999 7.6198 9.37999C7.4798 9.12999 7.5998 8.99999 7.7298 8.86999C7.8398 8.75999 7.9798 8.57999 8.0998 8.43999C8.2198 8.29999 8.2698 8.18999 8.3498 8.02999C8.4298 7.85999 8.3898 7.71999 8.3298 7.59999C8.2698 7.47999 7.7698 6.25999 7.5698 5.75999C7.3698 5.27999 7.1598 5.33999 7.0098 5.32999H6.5298C6.3598 5.32999 6.0998 5.38999 5.8698 5.63999C5.6498 5.88999 5.0098 6.48999 5.0098 7.70999C5.0098 8.92999 5.8998 10.11 6.0198 10.27C6.1398 10.44 7.7698 12.94 10.2498 14.01C10.8398 14.27 11.2998 14.42 11.6598 14.53C12.2498 14.72 12.7898 14.69 13.2198 14.63C13.6998 14.56 14.6898 14.03 14.8898 13.45C15.0998 12.87 15.0998 12.38 15.0298 12.27C14.9598 12.16 14.8098 12.11 14.5598 11.99Z" fill="white"/>
</svg>
